<?xml version="1.0" encoding="UTF-8" standalone="no"?>
<svg
   xmlns:dc="http://purl.org/dc/elements/1.1/"
   xmlns:cc="http://creativecommons.org/ns#"
   xmlns:rdf="http://www.w3.org/1999/02/22-rdf-syntax-ns#"
   xmlns:svg="http://www.w3.org/2000/svg"
   xmlns="http://www.w3.org/2000/svg"
   xmlns:xlink="http://www.w3.org/1999/xlink"
   width="290"
   height="50"
   viewBox="0 0 76.729164 13.229167"
   version="1.1"
   id="svg8">
  <defs
     id="defs2">
    <linearGradient
       id="linearGradient4483">
      <stop
         style="stop-color:#ff9900;stop-opacity:1"
         offset="0"
         id="stop4479" />
      <stop
         id="stop4489"
         offset="0.24999952"
         style="stop-color:#ffcc00;stop-opacity:1" />
      <stop
         style="stop-color:#ffffaa;stop-opacity:1"
         offset="0.5"
         id="stop4493" />
      <stop
         style="stop-color:#ffcc00;stop-opacity:1"
         offset="0.75000048"
         id="stop4491" />
      <stop
         style="stop-color:#ff9900;stop-opacity:1"
         offset="1"
         id="stop4481" />
    </linearGradient>
    <linearGradient
       xlink:href="#linearGradient4483"
       id="linearGradient4485"
       x1="42.333332"
       y1="283.77084"
       x2="42.333332"
       y2="294.35416"
       gradientUnits="userSpaceOnUse"
       gradientTransform="translate(-1.6687624,1.7028278)" />
  </defs>
  <metadata
     id="metadata5">
    <rdf:RDF>
      <cc:Work
         rdf:about="">
        <dc:format>image/svg+xml</dc:format>
        <dc:type
           rdf:resource="http://purl.org/dc/dcmitype/StillImage" />
        <dc:title></dc:title>
      </cc:Work>
    </rdf:RDF>
  </metadata>
  <g
     id="layer1"
     transform="translate(0,-283.77083)">
    <g
       id="text4269"
       style="font-style:normal;font-weight:normal;font-size:10.58333302px;font-family:sans-serif;fill:#000000;fill-opacity:1;stroke:none;stroke-width:0.26458332" />
    <g
       id="text4294"
       style="font-style:normal;font-variant:normal;font-weight:normal;font-stretch:normal;font-size:12.49329567px;font-family:Pergament;-inkscape-font-specification:'Pergament, Normal';font-variant-ligatures:normal;font-variant-caps:normal;font-variant-numeric:normal;font-feature-settings:normal;text-align:start;writing-mode:lr-tb;text-anchor:start;fill:url(#linearGradient4485);fill-opacity:1;stroke:none;stroke-width:0.31233239"
       aria-label="KÅRSPEXET">
      <path
         id="path4375"
         style="font-style:normal;font-variant:normal;font-weight:normal;font-stretch:normal;font-size:12.49329567px;font-family:Pergament;-inkscape-font-specification:'Pergament, Normal';font-variant-ligatures:normal;font-variant-caps:normal;font-variant-numeric:normal;font-feature-settings:normal;text-align:start;writing-mode:lr-tb;text-anchor:start;fill:url(#linearGradient4485);fill-opacity:1;stroke-width:0.31233239"
         d="m 6.2134657,290.55157 q 0.2562102,0.18301 0.3416136,0.26841 0.1220048,0.1342 0.1952077,0.40262 0.0122,0.061 0.4148165,0.59782 0.402616,0.53682 0.4392174,0.56122 0.2806112,0.17081 0.5490218,0.64663 0.012201,0.0122 0.012201,0.0244 0,0.0122 0,0.0244 0.012201,0 0.012201,0.0122 0.2318092,0.0854 0.3904155,0.24401 0.085403,0.0854 0.2806111,0.30501 0.073203,0.061 0.2196087,0.19521 0.1464058,0.122 0.2196087,0.18301 0.3050121,0.28061 0.3050121,0.45141 0,0.21961 -0.353814,0.21961 -0.2196087,0 -0.6588262,-0.1464 -0.4026159,-0.13421 -0.6710266,-0.13421 -0.1952077,0 -0.5612222,0.10981 -0.3660146,0.1098 -0.5734228,0.1098 -0.1464058,0 -0.2928116,-0.1098 -0.085403,-0.0854 -0.1098044,-0.0854 -0.036601,0 -0.1464058,0.061 -0.1342053,0.0732 -0.2318092,0.0732 -0.2196087,0 -0.2196087,-0.19521 0,-0.36601 0.7198286,-0.58562 -0.0122,-0.0122 0,-0.15861 0,-0.0366 -0.1708068,-0.15861 -0.2562102,-0.1708 -0.3050121,-0.2196 -0.097604,-0.0854 -0.1830073,-0.32942 -0.0122,-0.0366 -0.048802,-0.1342 -0.024401,-0.10981 -0.036601,-0.17081 -0.036601,-0.14641 -0.1708067,-0.20741 l -0.3538141,-0.1586 q -0.1708067,-0.0976 -0.2562101,-0.30502 -0.036601,-0.061 -0.073203,-0.122 -0.024401,-0.0732 -0.048802,-0.13421 -0.048802,-0.1098 -0.1952077,-0.1708 L 4.480997,291.3202 q -0.036602,-0.0366 -0.1098044,-0.18301 v -0.061 q 0,-0.13421 0.2196088,-0.37822 0.2196087,-0.24401 0.3904154,-0.2196 0.1952078,-0.24401 0.4148165,-0.40262 0.097604,-0.061 0.2074082,-0.18301 0.1464058,-0.30501 0.8906354,-0.92723 0.6588261,-0.56123 0.6588261,-0.87844 0,-0.19521 -0.3050121,-0.26841 -0.2074082,-0.0488 -0.353814,-0.0976 -0.1830073,-0.0488 -0.3172126,-0.18301 -0.1830073,-0.18301 -0.1830073,-0.31721 0,-0.29282 0.5368213,-0.29282 0.012201,0 0.2074082,0.0488 0.1464059,0.0366 0.2074083,0.0366 0.085403,0 0.2318092,-0.0488 0.1464058,-0.0488 0.2684106,-0.0488 0.085403,0 0.2196087,0.0488 0.1342054,0.0488 0.2196088,0.0488 0.085403,0 0.2684106,-0.0732 0.2074082,-0.0854 0.3050121,-0.0854 0.1342053,0 0.353814,0.10981 0.2440097,0.122 0.402616,0.122 0.2684107,0 0.2684107,0.31721 0,0.13421 -0.097604,0.29282 -0.097604,0.1586 -0.097604,0.25621 0,0.32941 -0.75643,0.67102 -0.073203,0.0244 -0.2196087,0.0976 -0.1464058,0.0732 -0.2196087,0.0976 -0.3172126,0.17081 -0.3538141,0.25621 -0.036601,0.0854 -0.707628,0.75643 -0.6588262,0.65883 -0.7686305,0.69543 z m -2.2204881,0.65882 q 0,0.12201 -0.085403,0.32942 0.1464059,0.29281 0.1464059,0.35381 0,0.17081 -0.061003,0.50022 -0.073203,0.40262 -0.073203,0.57342 0,0.0488 0.1220049,0.40262 0.048802,0.28061 0.085403,0.31721 0.073203,0.12201 0.3172125,0.14641 l 0.5124204,0.0366 q 0.329413,0.0488 0.329413,0.30501 0,0.53682 -0.6954275,0.53682 -0.1586063,0 -0.3660146,-0.0488 -0.2074082,-0.0488 -0.378215,-0.0488 -0.012201,0 -0.2074082,0.0244 -0.097604,0.0122 -0.2074082,0.0122 -0.1342054,0 -0.3904155,-0.0732 -0.2562102,-0.0732 -0.3904155,-0.0732 -0.1708068,0 -0.2074082,0.1586 -0.061002,0.26841 -0.3538141,0.26841 -0.2074082,0 -0.353814,-0.1708 -0.1464058,-0.15861 -0.1464058,-0.40262 0,-0.29281 0.3416135,-0.74423 0.048802,-0.0488 0.048802,-0.061 -0.2074083,-0.54902 -0.2074083,-1.03704 0,-0.19521 0.2196088,-0.76863 0.024401,-0.0732 0.024401,-0.14641 l -0.024401,-0.24401 q -0.024401,-0.24401 -0.024401,-0.26841 0,-0.0488 0.048802,-0.34161 0.036601,-0.21961 0.036601,-0.34162 0,-0.183 -0.048802,-0.42701 -0.048802,-0.24401 -0.048802,-0.42702 0,-0.0732 0.097604,-0.19521 l 0.1098043,-0.1098 q -0.012201,-0.0122 -0.061002,-0.0366 -0.048802,-0.0244 -0.061002,-0.0366 -0.1708068,-0.0854 -0.1708068,-0.32941 0,-0.17081 0.1098044,-0.69543 0.1098043,-0.52462 0.1098043,-0.62222 0,-0.0488 -0.036601,-0.0732 l -0.024401,-0.0366 q -0.048802,-0.0854 -0.1952077,-0.76863 -0.024401,-0.0366 -0.1708068,-0.0732 -0.061002,0 -0.073203,-0.0122 -0.1342053,0.20741 -0.4758189,0.20741 -0.50021984,0 -0.50021984,-0.37822 0,-0.1952 0.17080677,-0.37821 l 0.42701697,-0.13421 q 0.1098043,0.0244 0.3050121,0.15861 0.1952077,-0.23181 0.5490218,-0.15861 0.2562101,-0.0732 0.4148164,-0.0732 0.2074082,0 0.4392174,0.30501 0.073203,0.0976 0.1098044,0.0976 l 0.2318092,-0.17081 q 0.2440097,-0.17081 0.4636184,-0.17081 0.1708068,0 0.5002198,0.13421 0.3172126,0.1342 0.3172126,0.28061 0,0.29281 -0.2074082,0.46362 l -0.061002,0.0488 q -0.085403,0.0366 -0.1464058,0.1098 -0.085403,0.0854 -0.1098044,0.34162 -0.0122,0.1586 0,0.45142 l 0.012201,0.36601 q 0,0.17081 -0.012201,0.30501 -0.024401,0.26841 -0.024401,0.28061 0,0.0244 -0.048802,0.24401 -0.036602,0.17081 -0.036602,0.25621 0,0.061 0.097604,0.18301 0.073203,0.0854 0.097604,0.24401 0,0.35381 0.061002,0.90284 l 0.024401,0.0122 q 0.024401,0.0122 0.024401,0.0244 0.1098043,0.061 0.1098043,0.25621 0,0.34161 -0.3294131,0.43921 z" />
      <path
         id="path4377"
         style="font-style:normal;font-variant:normal;font-weight:normal;font-stretch:normal;font-size:12.49329567px;font-family:Pergament;-inkscape-font-specification:'Pergament, Normal';font-variant-ligatures:normal;font-variant-caps:normal;font-variant-numeric:normal;font-feature-settings:normal;text-align:start;writing-mode:lr-tb;text-anchor:start;fill:url(#linearGradient4485);fill-opacity:1;stroke-width:0.31233239"
         d="m 13.948572,286.3302 q -0.0122,-0.0122 -0.0488,-0.54902 -0.134205,-0.10981 -0.146406,-0.28061 -0.0732,-0.0732 -0.0854,-0.13421 -0.158606,-0.32941 -0.51242,-0.32941 -0.170807,0 -0.341614,0.0854 0,0 -0.061,0.0488 -0.0732,0.0488 -0.134206,0.0854 -0.0488,0.1342 -0.183007,0.24401 0,0.37821 -0.0976,0.59782 0.0366,0.0854 0.0366,0.18301 -0.0122,0.1342 0,0.17081 0.0732,0.0854 0.170806,0.36601 l 0.109805,0.14641 0.0122,0.0122 q 0.0976,0.061 0.0122,0.1464 l 0.0732,0.0366 0.170806,0.0732 h 0.0244 q 0.061,-0.0244 0.061,0 0,0 -0.0122,0.0244 -0.0244,0.0366 0,0.0732 0.0366,0.0732 0.0366,0.13421 0,0.183 -0.25621,0.1952 0,0 -0.366015,-0.0122 -0.292811,0 -0.561222,-0.26841 -0.0732,-0.061 -0.122005,-0.0732 -0.109804,-0.0732 -0.122005,-0.23181 -0.207408,-0.32941 -0.244009,-0.52462 0,0 -0.0488,-0.19521 -0.0244,-0.0976 0.0122,-0.1586 0.0366,-0.0732 0.0366,-0.0854 -0.0244,-0.0854 -0.0366,-0.0976 -0.0366,-0.18301 0.109804,-0.32941 0.0244,-0.28062 0.292812,-0.54903 0.268411,-0.26841 0.573423,-0.35381 0.292811,-0.0732 0.366014,-0.061 0.0732,0.0244 0.170807,0 0.0976,-0.0244 0.183007,0.0244 0.183008,-0.0488 0.549022,-0.0366 0.341614,0 0.524621,0.061 0.158606,0.0488 0.25621,0.24401 0.317213,0.061 0.329413,0.32941 0.25621,0.35382 0.25621,0.59783 0,0.0244 0.0366,0.1586 0.0244,0.0732 -0.0366,0.18301 -0.0122,0.0122 0.0122,0.0854 0.0244,0.0976 0.0244,0.13421 0,0.122 -0.0976,0.25621 -0.0732,0.31721 -0.25621,0.48802 -0.0732,0.0732 -0.329413,0.23181 -0.0366,0.0122 -0.122005,-0.0366 -0.0732,-0.0488 -0.146406,-0.0244 -0.0366,0.0122 -0.122005,0.0488 -0.0732,0.0366 -0.109804,0.061 -0.170807,0.0732 -0.231809,0.061 -0.427017,0.0732 -0.427017,-0.17081 0,-0.061 0.0488,-0.1098 0.0732,-0.0732 0.207408,-0.1098 0.146406,-0.0366 0.158606,-0.0488 0.0244,-0.0244 0.280611,-0.24401 0.0488,-0.1708 0.146406,-0.23181 0.0244,-0.0244 0.0244,-0.0488 0,-0.0488 -0.0366,-0.1464 -0.0366,-0.0854 -0.0122,-0.14641 z m -0.51242,3.46494 q -0.0122,0.0122 -0.158606,-0.0976 -0.122005,-0.0854 -0.146406,-0.2196 -0.0366,-0.0122 -0.0976,0.061 -0.0976,0.1342 -0.231809,0.1342 -0.219609,0 -0.158607,-0.23181 0,-0.0366 0.0488,-0.183 0.061,-0.18301 0.061,-0.24401 0,-0.30501 -0.915037,-0.30501 -0.292811,0 -0.292811,-0.19521 0,-0.19521 0.26841,-0.37822 0.280612,-0.183 0.475819,-0.1708 0.061,-0.0122 0.24401,-0.0732 0.061,-0.0244 0.134205,-0.0488 0.0732,-0.0244 0.0976,-0.0366 h 0.0854 q 0.414816,-0.0244 0.646625,-0.1098 0.146406,-0.0488 0.378215,-0.0366 0.329413,0.0244 0.402616,0.23181 0.0488,0.14641 0.122005,0.43922 0.292812,0.29281 0.439217,0.79303 0.0122,0.0244 0.0976,0.17081 0.0854,0.1342 0.146406,0.24401 l 0.122005,0.25621 q 0.183007,0.1098 0.183007,0.25621 0,0.0732 -0.0366,0.1464 -0.0488,0.0976 -0.061,0.13421 -0.0244,0.0244 0.061,0.0854 0.26841,0.25621 0.695427,1.45186 0.134206,0.35381 0.256211,0.48802 0.0976,0.19521 0.26841,0.42702 0.195208,0.1952 0.280611,0.43921 0.0488,0.13421 0.158607,0.32942 0.51242,0.51242 0.51242,0.79303 0,0.30501 -0.536821,0.28061 -0.329413,-0.0244 -0.878435,-0.19521 -0.122005,-0.0366 -0.207408,-0.0122 -0.195208,0.19521 -0.610025,0.19521 -0.475818,0 -0.475818,-0.32941 0,-0.0854 0.0976,-0.30502 0.0854,-0.183 0.0854,-0.30501 0,-0.0976 -0.0854,-0.25621 -0.0976,-0.1586 -0.134205,-0.28061 -0.146406,-0.42702 -0.463618,-0.67103 -0.0122,0.0122 -0.0366,0.0122 -0.414816,0.0122 -0.451418,-0.17081 -0.0244,-0.14641 0.268411,-0.40262 0.0244,-0.0244 0.0244,-0.0732 0,-0.0732 -0.158606,-0.48802 -0.207409,-0.53682 -0.183008,-0.68323 -0.0366,-0.28061 -0.134205,-0.37821 -0.170807,-0.14641 -0.195208,-0.20741 -0.0488,-0.0854 -0.0122,-0.28061 z m 0.0732,3.41613 q -0.0976,0.0976 -0.134206,0.18301 -0.0488,0.0976 -0.219608,0.31721 -0.134206,0.17081 -0.219609,0.30502 -0.329413,0.61002 -1.024841,0.61002 -0.26841,0 -0.475819,-0.0854 -0.305012,0.1342 -0.854033,0.0244 l -0.5856237,0.1464 -0.1952077,-0.40261 0.048802,-0.30501 0.1830075,-0.14641 v -0.50022 q 0.0122,-0.24401 0.207408,-0.43922 0.0122,-0.0244 0.0732,-0.122 0.061,-0.0976 0.0976,-0.17081 0.0976,-0.0976 0.317212,-0.47582 0.0976,-0.32941 0.463619,-0.68323 0.0488,-0.0488 0.0488,-0.061 l 0.0732,-0.25621 q 0.0366,-0.122 0.146405,-0.23181 0.0976,-0.0854 0.451418,-0.46362 0.0122,-0.0244 0.0488,-0.0732 0.0366,-0.0244 0.0488,-0.0488 0.353814,-0.48802 0.622225,-0.51242 0.122005,0 0.183007,0.0732 0.061,0.0732 0.0366,0.18301 -0.0244,0.14641 -0.134206,0.34161 -0.109804,0.19521 -0.134205,0.32942 -0.0244,0.122 -0.146406,0.30501 -0.268411,0.42702 -0.219609,0.73203 0.0122,0.061 0.0122,0.1708 0,0.23181 -0.158606,0.42702 -0.0488,0.0732 -0.158607,0.20741 -0.0976,0.122 -0.146405,0.18301 -0.158607,0.1952 -0.158607,0.34161 0,0.26841 0.402616,0.26841 h 0.414817 q 0.0732,-0.061 0.231809,-0.20741 0.170807,-0.1464 0.24401,-0.20741 0.146405,-0.1342 0.451417,-0.1952 0.305013,-0.061 0.305013,0.1464 0,0.10981 -0.146406,0.29281 z" />
      <path
         id="path4379"
         style="font-style:normal;font-variant:normal;font-weight:normal;font-stretch:normal;font-size:12.49329567px;font-family:Pergament;-inkscape-font-specification:'Pergament, Normal';font-variant-ligatures:normal;font-variant-caps:normal;font-variant-numeric:normal;font-feature-settings:normal;text-align:start;writing-mode:lr-tb;text-anchor:start;fill:url(#linearGradient4485);fill-opacity:1;stroke-width:0.31233239"
         d="m 26.027052,289.57553 q 0,0 -0.0244,0.0366 -0.0122,0.0366 -0.061,0.12201 -0.0488,0.0854 -0.109804,0.2196 -0.061,0.12201 -0.158606,0.30502 -0.0854,0.1708 -0.183008,0.37821 0.0122,0.0122 0.0122,0.0854 0,0.122 -0.109805,0.1708 -0.122004,0.061 -0.231809,0.0976 -0.0488,0.0366 -0.134205,0.1098 -0.0732,0.0732 -0.122005,0.1098 -0.195208,0.14641 -0.451418,0.14641 -0.0854,0 -0.158606,-0.0122 -0.0732,-0.0122 -0.170807,-0.0122 -0.146406,0 -0.231809,-0.0122 h -0.158606 q -0.256211,0 -0.256211,-0.0976 0,-0.26842 0.353814,-0.29282 0.0244,-0.0854 0.134206,-0.21961 0.109804,-0.0854 0.109804,-0.2074 0,-0.0732 0.0854,-0.26841 0.0854,-0.19521 0.0854,-0.26841 0,-0.0366 -0.0488,-0.23181 -0.0488,-0.19521 -0.0488,-0.23181 0,-0.13421 0.0488,-0.32942 0.061,-0.24401 0.061,-0.32941 0,-0.26841 -0.183007,-0.36601 -0.305012,-0.0976 -0.805232,-0.37822 -0.0732,-0.0366 -0.146406,-0.0366 -0.0366,0 -0.25621,0.0244 -0.219608,0.0244 -0.244009,0.0244 -0.317213,0 -0.317213,-0.23181 0,-0.21961 0.610024,-0.36601 0.48802,-0.0976 0.793032,-0.0976 0.0244,0 0.170806,0.0244 0.0732,0.0122 0.158607,0.0122 0.0488,0 0.292811,-0.0244 0.24401,-0.0244 0.268411,-0.0244 0.219609,0 0.536821,0.13421 0.353814,0.1464 0.414817,0.28061 0.0366,0.0854 0.231809,0.39042 0.183007,0.2074 0.183007,0.56122 v 0.30501 q 0,0.13421 0.0244,0.24401 0.0366,0.15861 0.0366,0.25621 z m -0.207409,5.0754 q -0.0244,0 -0.146405,0.0244 -0.122005,0.0244 -0.146406,0.0244 -0.146406,0 -0.329413,-0.0854 -0.219609,-0.0976 -0.292812,-0.0976 -0.0732,0 -0.24401,0.0732 -0.170806,0.0732 -0.292811,0.0732 -0.292812,0 -0.549022,-0.35381 -0.146406,-0.24401 -0.329413,-0.61003 -0.109804,-0.0488 -0.219609,-0.0976 -0.0976,-0.0488 -0.207408,-0.0976 -0.231809,-0.12201 -0.292812,-0.32942 -0.0244,-0.1464 -0.0732,-0.28061 -0.0366,-0.1464 -0.061,-0.29281 -0.0976,-0.29281 -0.353814,-0.42702 -0.183007,-0.061 -0.402616,-0.1952 -0.195208,-0.18301 -0.195208,-0.23181 0,-0.10981 0.317213,-0.14641 0.317212,-0.0366 0.341613,-0.061 0.195208,-0.21961 0.292812,-0.25621 0.0976,-0.0366 0.427017,-0.0366 0.134205,0 0.24401,0.0366 0,0.0122 0.0122,0.0122 v 0.0244 q 0,0.0244 -0.061,0.1098 -0.0488,0.061 -0.0488,0.12201 0,0.0488 0.0366,0.0854 0.0366,0.0976 0.158607,0.10981 0.0366,0 0.109804,0.0122 0.0854,0 0.122005,0.0122 0.231809,0.061 0.549022,0.37821 0.353814,0.35382 0.51242,0.40262 0.24401,0.0732 0.353814,0.18301 0.0488,0.0488 0.231809,0.31721 0.134205,0.20741 1.00044,0.68322 0.732029,0.40262 0.732029,0.75643 0,0.35382 -0.329413,0.35382 -0.122005,0 -0.439218,-0.0976 -0.317212,-0.0976 -0.427017,-0.0976 z m -3.769949,0 q -0.0122,0 -0.183007,-0.0244 l -0.170807,-0.0244 q -0.0732,0 -0.183007,0.0488 -0.109805,0.0488 -0.183008,0.0488 -0.195208,0 -0.805232,-0.061 -0.610024,-0.061 -0.817432,-0.061 -0.24401,0 -0.292812,0.0488 -0.0488,0.0488 -0.0488,0.30501 0,0.51242 -0.378215,0.51242 -0.341613,0 -0.341613,-0.53682 0,-0.0244 0.0244,-0.31721 0.0244,-0.29281 0.0244,-0.32941 0,-0.20741 0.195207,-0.40262 0.195208,-0.19521 0.195208,-0.40262 0,-0.0488 -0.0488,-0.36601 -0.0488,-0.31721 -0.0488,-0.35381 0,-0.0976 0.0854,-0.32942 0.0732,-0.19521 0.0732,-0.26841 0,-0.1098 -0.0488,-0.26841 -0.0488,-0.15861 -0.0488,-0.28061 0,-0.0976 0.0366,-0.28061 0.0366,-0.18301 0.0366,-0.26841 0,-0.061 -0.122005,-0.32942 -0.122005,-0.26841 -0.122005,-0.39041 0,-0.0854 0.061,-0.23181 0.0488,-0.1098 0.0488,-0.17081 0,-0.0976 -0.0122,-0.183 -0.0122,-0.0854 -0.0122,-0.19521 0,-0.13421 0.0732,-0.41482 0.0732,-0.28061 0.0732,-0.32941 -0.0122,-0.0122 -0.0366,-0.0366 -0.0122,-0.0366 -0.0244,-0.0488 -0.170807,-0.25621 -0.219609,-0.79304 -0.170807,-0.0854 -0.170807,-0.1098 -0.0976,0.30501 -0.439217,0.30501 -0.134206,0 -0.305012,-0.0976 -0.158607,-0.0854 -0.158607,-0.23181 0,-0.40262 1.061443,-0.40262 0.158606,0 0.475818,0.0732 0.317213,0.0732 0.451418,0.0732 0.207409,0 0.463619,-0.061 0.305012,-0.0732 0.475819,-0.0732 0.061,0 0.634425,0.13421 0.549022,0.122 0.610024,0.17081 0.146406,0.0976 0.146406,0.1952 0,0.10981 -0.378215,0.25621 -0.378215,0.14641 -0.524621,0.14641 h -0.0244 q -0.24401,0 -0.24401,0.61002 0,0.13421 0.0488,0.32942 0.0488,0.1952 0.0488,0.34161 0,0.0244 -0.0244,0.31721 -0.0244,0.29281 -0.0244,0.32942 0,0.87843 0.0854,1.01264 0.0366,0.061 0.207408,0.30501 0,0.0122 0.170807,0.0976 0.158606,0.0854 0.158606,0.21961 0,0.1098 -0.207408,0.20741 -0.207409,0.1098 -0.329413,0.0854 -0.0122,0.0366 -0.0122,0.18301 0,0.73203 0.329413,0.97604 0.134206,0.0976 0.268411,0.28061 0.109804,0.1342 0.646626,0.21961 0.500219,0.0732 0.500219,0.32941 0,0.21961 -0.231809,0.37822 -0.195208,0.1342 -0.488019,0.1342 z" />
      <path
         id="path4381"
         style="font-style:normal;font-variant:normal;font-weight:normal;font-stretch:normal;font-size:12.49329567px;font-family:Pergament;-inkscape-font-specification:'Pergament, Normal';font-variant-ligatures:normal;font-variant-caps:normal;font-variant-numeric:normal;font-feature-settings:normal;text-align:start;writing-mode:lr-tb;text-anchor:start;fill:url(#linearGradient4485);fill-opacity:1;stroke-width:0.31233239"
         d="m 34.018369,288.9045 q 0,0.12201 -0.109804,0.30502 -0.134206,0.2074 -0.158607,0.26841 -0.061,0.1708 -0.317212,0.1708 -0.231809,0 -0.231809,-0.32941 0,-0.25621 0.0122,-0.32941 l 0.0122,-0.0122 q -0.109805,-0.0488 -0.353814,-0.26841 -0.268411,-0.24401 -0.378215,-0.24401 -0.634426,0 -1.427457,-0.25621 -0.134205,-0.0488 -0.341614,-0.0488 -0.122004,0 -0.317212,0.0488 -0.195208,0.0488 -0.317213,0.0488 -0.134205,0 -0.414816,-0.0732 -0.280611,-0.0732 -0.402616,-0.0732 -0.0976,0 -0.231809,0.12201 -0.134206,0.122 -0.256211,0.122 -0.207408,0 -0.207408,-0.20741 0,-0.25621 0.341614,-0.54902 0.366014,-0.30501 0.585623,-0.30501 0.061,0 0.0976,0.15861 0.061,-0.18301 0.183007,-0.18301 0.061,0 0.109805,0.0122 0.0976,0.0244 0.134205,0.0244 0.146406,-0.0732 0.402616,-0.0732 0.183007,0 0.51242,0.0732 0.280611,0.061 0.48802,0.061 0.0488,0 0.26841,-0.061 0.219609,-0.061 0.329413,-0.061 0.158607,0 0.48802,0.0366 0.439217,0.0488 0.488019,0.0488 0.0488,0 0.146406,0.0366 0.061,0.0244 0.134205,0.0244 l 0.0854,-0.0366 0.219609,-0.37821 q 0.268411,0.061 0.439218,0.35381 0.158606,0.26841 0.158606,0.58562 0,0.40262 -0.24401,0.46362 -0.0488,0.0366 -0.0488,0.12201 0,0.0366 0.061,0.183 0.061,0.14641 0.061,0.21961 z m -0.427017,4.61179 q -0.170807,0 -0.170807,-0.29282 l 0.0366,-0.30501 q -0.0854,-0.1708 -0.0854,-0.28061 0,-0.0732 0.0488,-0.1098 -0.475818,-0.0366 -0.658826,-0.43922 -0.170807,-0.0244 -1.049241,-0.0976 -0.23181,-0.0244 -0.512421,-0.0366 -0.280611,-0.0244 -0.402616,-0.0366 -0.122004,-0.0122 -0.170806,-0.0122 -0.0854,0 -0.256211,0.0366 -0.219608,0.0488 -0.26841,0.0488 -0.146406,0 -0.280611,-0.17081 -0.0366,-0.061 -0.597824,-0.14641 -0.573423,-0.0976 -0.732029,-0.34161 -0.0732,-0.0488 -0.231809,-0.14641 -0.146406,-0.0976 -0.219609,-0.1464 -0.353814,-0.24401 -0.353814,-0.80523 0,-1.06145 0.134205,-1.29326 0.061,-0.0976 0.25621,-0.29281 0.183008,-0.1952 0.317213,-0.23181 0.0366,-0.0122 0.061,-0.0244 0.0244,-0.0122 0.0366,-0.0122 l 0.0244,-0.0122 q 0.170807,0 0.170807,0.23181 l -0.0976,0.31721 h -0.0244 q 0.134205,0.23181 0.134205,0.35382 0,0.0732 -0.0122,0.1342 -0.0122,0.061 -0.0122,0.13421 -0.0122,0.0244 0.0122,0.0488 0.0366,0.0244 0.0976,0.061 0.061,0.0244 0.158607,0.0488 0.061,0.0244 0.219608,0.0976 0.170807,0.061 0.268411,0.0976 0.280611,0.12201 0.475819,0.12201 0.109804,0 0.183007,-0.0122 0.0732,-0.0122 0.158607,-0.0122 0.122004,0 0.402616,0.0732 0.280611,0.0732 0.427016,0.0732 0.0732,0 0.280612,0.061 0.158606,0.0488 0.26841,0.0488 0.146406,0 0.268411,-0.0122 0.122005,-0.0122 0.268411,-0.0122 0.183007,0 0.463618,0.0732 0.317213,0.0854 0.402616,0.0854 0.122005,0 0.219609,0.10981 0.0976,0.122 0.134205,0.1342 0.0976,0.0488 0.292812,0.14641 0.195207,0.0854 0.292811,0.1342 0.317213,0.23181 0.305012,0.56122 0,0.0732 -0.0122,0.13421 0,0.0488 0,0.1098 0,0.0488 0,0.0366 0,0.0976 0.0244,0.1952 0.0366,0.14641 0.0366,0.21961 0,0.10981 -0.0732,0.21961 -0.0244,0.0366 -0.0732,0.18301 -0.219608,0.95164 -0.585623,0.95164 z m -5.404814,-1.14685 q 0.231809,0 0.292811,0.29281 0.061,0.37822 0.0976,0.40262 0.0366,0.0244 0.134206,0.1098 0.0976,0.0732 0.158606,0.10981 0.24401,0.23181 0.390415,0.23181 0.280611,0 0.817433,0.183 0.536821,0.18301 0.805232,0.18301 0.109804,0 0.378215,-0.061 0.26841,-0.061 0.366014,-0.061 0.0488,0 0.463619,0.0732 0.341613,0.061 0.463618,0.061 0.109804,0 0.390416,-0.1098 0.280611,-0.10981 0.475818,-0.10981 0.280612,0 0.280612,0.20741 0,0.28061 -0.23181,0.45142 -0.0488,0.0244 -0.463618,0.19521 l -0.317213,0.1586 q -0.195207,0.0976 -0.329413,0.0976 -0.0976,0 -0.183007,-0.0122 -0.0854,-0.0122 -0.183007,-0.0122 -0.0854,0 -0.146406,-0.0122 -0.122005,-0.0244 -0.134205,-0.0244 -0.183008,0.0732 -0.414817,0.0732 -0.195208,0 -0.536821,-0.0732 -0.341614,-0.0732 -0.536821,-0.0732 h -0.0244 q -0.0366,0.0122 -0.0976,0.0244 -0.0488,0.0244 -0.122005,0.0366 -0.268411,0.061 -0.414817,0.061 -0.134205,0 -0.390415,-0.0366 -0.25621,-0.0366 -0.378215,-0.0366 -0.0366,0 -0.183007,0.0488 -0.109805,0.0366 -0.183008,0.0366 -0.219608,0 -0.390415,-0.15861 l -0.280611,0.15861 q -0.414817,-0.10981 -0.414817,-0.45142 0,-0.21961 0.122005,-0.54902 0.134206,-0.36602 0.134206,-0.56123 0,-0.061 -0.0366,-0.1708 -0.0366,-0.10981 -0.0366,-0.15861 0,-0.122 0.146405,-0.39041 0.146406,-0.28062 0.292812,-0.28062 0.146406,0 0.219609,0.14641 z" />
      <path
         id="path4383"
         style="font-style:normal;font-variant:normal;font-weight:normal;font-stretch:normal;font-size:12.49329567px;font-family:Pergament;-inkscape-font-specification:'Pergament, Normal';font-variant-ligatures:normal;font-variant-caps:normal;font-variant-numeric:normal;font-feature-settings:normal;text-align:start;writing-mode:lr-tb;text-anchor:start;fill:url(#linearGradient4485);fill-opacity:1;stroke-width:0.31233239"
         d="m 42.741715,289.70974 q 0,0.1098 -0.122005,0.26841 -0.134206,0.183 -0.158607,0.25621 -0.0122,0.0976 -0.122004,0.45141 -0.0732,0.12201 -0.134206,0.30502 -0.0122,0.25621 -0.219608,0.29281 l -0.0732,0.0122 q -0.536822,0.64662 -0.854034,0.64662 -0.0732,0 -0.25621,-0.0366 -0.183008,-0.0366 -0.268411,-0.0366 -0.0488,0 -0.25621,0.0976 -0.24401,0.10981 -0.427017,0.10981 -0.48802,0 -1.293252,-0.31721 1.403056,-0.47582 1.695868,-0.75643 0.061,-0.0732 0.244009,-0.28061 0.195208,-0.20741 0.305013,-0.34162 0.061,-0.061 0.061,-0.65882 0,-0.15861 0.0488,-0.36602 0.0488,-0.20741 0.0488,-0.35381 0,-0.32942 -0.341614,-0.47582 -0.109804,-0.0854 -0.634425,-0.35382 -0.0976,-0.0244 -0.50022,-0.0244 -0.427017,0 -0.427017,-0.26841 0,-0.183 0.305012,-0.26841 0.061,-0.0122 0.219609,-0.0366 0.158606,-0.0366 0.24401,-0.0488 0.390415,-0.0854 0.475819,-0.0854 0.0244,0 0.219608,0.0244 0.195208,0.0244 0.219609,0.0244 0.158606,0 0.280611,-0.0122 0.24401,-0.0244 0.268411,-0.0244 0.353814,0 0.707628,0.2196 0.341614,0.21961 0.439217,0.53683 0.134206,0.2074 0.158607,0.28061 0.0854,0.1708 0.0854,0.40261 v 0.30501 q 0,0.14641 0.0244,0.25621 0.0366,0.17081 0.0366,0.25622 z m -5.002199,2.39129 q 0.0488,0.13421 0.0488,0.25621 0,0.1098 -0.0122,0.18301 -0.0122,0.0732 -0.0122,0.1708 0,0.24401 0.231809,0.51242 l 0.414817,0.40262 q 0.366014,0.34161 0.951637,0.48802 0.366015,0.0976 0.561223,0.14641 0.061,0.0976 0.061,0.1342 0,0.14641 -0.329413,0.29281 -0.280611,0.12201 -0.475819,0.12201 -0.122005,0 -0.378215,-0.0976 -0.25621,-0.0976 -0.317212,-0.0976 -0.0244,0 -0.219609,0.0488 -0.146406,0.0366 -0.219609,0.0366 -0.134205,0 -0.231809,-0.0122 -0.0976,-0.0122 -0.207408,-0.0122 -0.109805,0 -0.378215,0.061 -0.268411,0.061 -0.366015,0.061 -0.280611,0 -0.317212,-0.23181 -0.0488,-0.32942 -0.061,-0.45142 0,-0.15861 -0.0732,-0.15861 -0.158606,0 -0.195207,0.39042 -0.0488,0.58562 -0.0976,0.71983 -0.109805,0.39041 -0.439218,0.39041 -0.305012,0 -0.305012,-0.51242 0,-0.1952 0.0122,-0.34161 0.0244,-0.29281 0.0244,-0.34161 0,-0.19521 0.183007,-0.40262 0.183007,-0.20741 0.183007,-0.40262 0,-0.122 -0.0366,-0.31721 -0.0488,-0.26841 -0.0488,-0.29281 0,-0.14641 0.0732,-0.39042 0.0732,-0.24401 0.0732,-0.35381 0,-0.0854 -0.0366,-0.28061 -0.0366,-0.19521 -0.0366,-0.30501 0,-0.0244 0.0244,-0.24401 0.0244,-0.21961 0.0244,-0.24401 0,-0.0854 -0.109805,-0.29281 -0.109804,-0.20741 -0.109804,-0.34162 0,-0.0732 0.061,-0.25621 0.0488,-0.1464 0.0488,-0.21961 0,-0.1098 -0.0122,-0.1952 -0.0244,-0.17081 -0.0244,-0.19521 0,-0.12201 0.0732,-0.36602 0.061,-0.1952 0.061,-0.35381 -0.0122,-0.0122 -0.0732,-0.10981 -0.061,-0.0976 -0.170807,-0.70762 -0.0122,-0.0732 -0.0732,-0.0976 -0.0244,-0.0122 -0.0732,-0.0122 -0.0488,-0.0122 -0.0732,-0.0122 -0.0976,0.24401 -0.378215,0.24401 -0.134206,0 -0.329413,-0.1098 -0.170807,-0.0976 -0.170807,-0.24401 0,-0.37822 1.25665,-0.37822 0.134205,0 0.341613,0.0854 0.231809,0.0976 0.341614,0.0976 0.0976,0 0.463618,-0.0854 0.366015,-0.0854 0.475819,-0.0854 0.170807,0 0.524621,0.0976 0.353814,0.0976 0.50022,0.0976 0.305012,0 0.439217,0.14641 0.0732,0.0732 0.0732,0.1586 0,0.14641 -0.231809,0.21961 -0.061,0.0244 -0.183007,0.0488 -0.122005,0.0244 -0.183008,0.0488 -0.170806,0.0854 -0.280611,0.0854 H 37.84932 q -0.219608,0 -0.219608,0.58562 0,0.13421 0.0488,0.34162 0.0488,0.2074 0.0488,0.35381 0,0.19521 -0.0244,0.34161 -0.0366,0.21961 -0.0366,0.32942 0,0.97604 0.134205,1.11024 0.0366,0.0244 0.305013,0.0854 0.219608,0.061 0.219608,0.17081 0,0.18301 -0.585623,0.48802 z" />
      <path
         id="path4385"
         style="font-style:normal;font-variant:normal;font-weight:normal;font-stretch:normal;font-size:12.49329567px;font-family:Pergament;-inkscape-font-specification:'Pergament, Normal';font-variant-ligatures:normal;font-variant-caps:normal;font-variant-numeric:normal;font-feature-settings:normal;text-align:start;writing-mode:lr-tb;text-anchor:start;fill:url(#linearGradient4485);fill-opacity:1;stroke-width:0.31233239"
         d="m 48.841955,287.29404 q 0.183007,-0.14641 0.414816,-0.14641 0.122005,0 0.219609,0.061 0.109805,0.0732 0.158606,0.0732 0.0122,0 0.280612,-0.12201 0.244009,-0.1098 0.378215,-0.1098 0.292811,0 0.292811,0.30501 0,0.0366 -0.061,0.28061 -0.061,0.23181 -0.0488,0.24401 0.061,0.20741 -0.146406,0.41482 0.134205,0.18301 0.134205,0.41482 0,0.31721 -0.317212,0.31721 -0.280611,0 -0.414817,-0.17081 -0.061,-0.061 -0.061,-0.061 -0.122005,-0.0976 -0.25621,-0.35382 v -0.0244 q -0.0854,-0.0366 -0.292812,-0.24401 -0.061,-0.061 -0.280611,-0.061 -0.317213,-0.061 -0.402616,-0.1098 -0.0976,-0.061 -0.158606,-0.061 -0.0488,0 -0.183008,0.0366 -0.0854,0.0244 -0.207408,0.0244 -0.195207,0 -0.439217,-0.12201 -0.292812,-0.1464 -0.292812,-0.31721 0,-0.13421 0.292812,-0.28061 0.25621,-0.10981 0.366014,-0.10981 0.219609,0 0.50022,0.061 0.353814,0.0732 0.524621,0.061 z m 1.622664,5.79523 q 0.134206,-0.17081 0.280612,-0.17081 0.146405,0 0.244009,0.0854 0.122005,0.0976 0.122005,0.23181 0,0.0976 -0.0854,0.1586 -0.061,0.0732 -0.109805,0.12201 0.061,0.1586 0.061,0.1708 0,0.20741 -0.219609,0.42702 -0.219609,0.21961 -0.219609,0.42702 0,0.30501 -0.219608,0.30501 -0.158607,0 -0.414817,-0.21961 -0.0732,-0.0732 -0.146406,-0.0732 -0.0244,0 -0.146405,0.0244 -0.122005,0.0244 -0.158607,0.0244 -0.0854,0 -0.231809,-0.0732 -0.0854,-0.0488 -0.207408,-0.0732 -0.0488,-0.0122 -0.390416,-0.0122 -0.170806,0 -0.427017,0.0732 -0.25621,0.0732 -0.390415,0.0732 -0.25621,0 -0.561222,-0.0854 -0.439218,-0.10981 -0.439218,-0.26842 0,-0.0854 0.195208,-0.183 0.134205,-0.061 0.268411,-0.0854 0.207408,0 0.536821,-0.061 0.109804,-0.0854 0.573423,-0.17081 0.500219,-0.0976 0.573422,-0.1464 0.0732,-0.061 0.402616,-0.14641 0.0732,-0.0122 0.23181,-0.0366 0.170806,-0.0366 0.25621,-0.061 l 0.195207,-0.0976 q 0.170807,-0.0854 0.23181,-0.0854 0.0366,0 0.122004,0.0366 z m -6.527259,1.81787 q -0.402616,0 -0.402616,-0.57342 v -0.21961 q 0,-0.21961 0.195208,-0.41482 0.195208,-0.1952 0.195208,-0.36601 0,-0.14641 -0.0488,-0.34161 -0.0488,-0.19521 -0.0488,-0.32942 0,-0.183 0.134205,-0.57342 l 0.0244,-0.0732 q 0,-0.13421 -0.0488,-0.32942 -0.0488,-0.1952 -0.0488,-0.31721 0,-0.0854 0.0366,-0.25621 0.0366,-0.17081 0.0366,-0.23181 0,-0.061 -0.0854,-0.18301 -0.0854,-0.122 -0.0854,-0.1952 0,-0.10981 0.0976,-0.18301 0.0976,-0.0732 0.0976,-0.0854 0,-0.0366 -0.0976,-0.0976 -0.183007,-0.122 -0.183007,-0.32941 0,-0.0366 0.0854,-0.54902 0.061,-0.40262 0.134205,-0.51242 0.0244,-0.0488 0.0244,-0.0732 0,-0.0488 -0.0732,-0.122 -0.0854,-0.0854 -0.134205,-0.41482 -0.061,-0.35381 -0.0732,-0.35381 -0.122005,-0.061 -0.170807,-0.061 -0.0732,0 -0.183007,0.122 -0.109805,0.12201 -0.280611,0.12201 -0.122005,0 -0.256211,-0.0854 -0.183007,-0.0854 -0.183007,-0.21961 0,-0.23181 0.25621,-0.34161 0.0732,-0.0244 0.414817,-0.0244 0.0854,0 0.244009,-0.0366 0.109805,-0.0244 0.23181,-0.0244 0.963838,0 1.073642,0.1098 l 0.0976,0.0976 0.134205,-0.0976 q 0.146406,-0.1098 0.366015,-0.1098 0.0976,0 0.170807,0.0122 0.146406,0.0244 0.158606,0.0244 0.109804,0 0.183007,-0.0122 0.0732,-0.0122 0.183008,-0.0122 0.0854,0 0.146405,0.0122 0.0244,0 0.061,0.0122 0.0488,0.0122 0.061,0.0122 0.061,0 0.109805,-0.0122 0.0488,-0.0122 0.109804,-0.0122 0.122005,0 0.25621,0.1098 0.134205,0.10981 0.134205,0.25621 0,0.12201 -0.378215,0.32942 -0.378215,0.2074 -0.488019,0.2074 h -0.0244 -0.0244 -0.122005 q -0.0732,0.0244 -0.109804,0.12201 l -0.109804,0.39041 q 0,0.0122 0.0244,0.23181 0.0122,0.10981 0.0122,0.23181 0,0.21961 -0.0122,0.40262 -0.0244,0.36601 -0.0244,0.40261 0,0.18301 0.170806,0.35382 0.183008,0.18301 0.329413,0.19521 0.0854,0 0.23181,0.0732 0.183007,0.1098 0.719828,-0.0366 0.134206,-0.0366 0.402616,-0.13421 0.25621,-0.0732 0.427017,-0.0732 0.317213,0 0.317213,0.28061 0,0.13421 -0.183008,0.46362 -0.183007,0.32941 -0.317212,0.32941 -0.0732,0 -0.25621,-0.1098 -0.183008,-0.10981 -0.317213,-0.10981 -0.0244,0 -0.0854,0.0366 -0.061,0.0366 -0.109805,0.0366 -0.122004,0 -0.366014,-0.0732 -0.231809,-0.0732 -0.390416,-0.0732 -0.122005,0 -0.244009,0.0732 -0.122005,0.0732 -0.122005,0.12201 0,0.0854 -0.0122,0.1464 -0.0122,0.061 -0.0122,0.14641 0,0.0854 0.0854,0.21961 0.0854,0.1342 0.0854,0.25621 0,0.0976 -0.0976,0.35381 -0.0976,0.25621 -0.0976,0.37822 0,0.0732 0.0976,0.29281 0.0976,0.21961 0.0976,0.31721 0,0 -0.0122,0.0244 -0.0122,0.0366 -0.0122,0.061 -0.0122,0.0488 -0.0122,0.1098 0,0.0976 0.305012,0.25621 0.305012,0.15861 0.305012,0.32941 0,0.30501 -0.402616,0.37822 -0.146405,0.0244 -0.622224,0.0244 -0.0976,0 -0.170807,0.0122 -0.0732,0.0122 -0.183007,0.0122 -0.158607,0 -0.292812,-0.0244 -0.195208,-0.0366 -0.292812,-0.0366 -0.231809,0 -0.366014,0.1708 -0.146406,0.18301 -0.390416,0.18301 z" />
      <path
         id="path4387"
         style="font-style:normal;font-variant:normal;font-weight:normal;font-stretch:normal;font-size:12.49329567px;font-family:Pergament;-inkscape-font-specification:'Pergament, Normal';font-variant-ligatures:normal;font-variant-caps:normal;font-variant-numeric:normal;font-feature-settings:normal;text-align:start;writing-mode:lr-tb;text-anchor:start;fill:url(#linearGradient4485);fill-opacity:1;stroke-width:0.31233239"
         d="m 57.016282,288.7459 q -0.0244,0.0366 0.109804,-0.36602 0.0244,-0.0732 -0.0488,-0.122 -0.061,-0.0488 -0.231809,-0.0976 -0.0244,0 -0.0732,-0.0122 -0.0366,-0.0122 -0.109804,-0.0244 -0.0732,-0.0244 -0.134205,-0.0366 -0.0854,-0.1098 -0.256211,-0.0976 -0.341613,0.0244 -0.463618,-0.13421 -0.25621,-0.0854 -0.25621,-0.25621 0,-0.122 0.146406,-0.23181 0.390415,-0.29281 0.866234,-0.29281 0.622225,0 1.073643,0.21961 0.0854,0.0488 0.195207,0.0488 0.0854,0 0.268411,-0.0732 0.109804,-0.0488 0.25621,-0.0732 0.524621,0 0.707628,0.25621 0.122005,0.1708 0.0854,0.40261 -0.0366,0.20741 -0.256211,0.31721 l -0.219608,0.12201 -0.24401,0.37821 -0.268411,0.52462 q -0.207408,0.0976 -0.622224,0.40262 -0.25621,0.10981 -0.463619,0.28061 -0.207408,0.17081 -0.353814,0.17081 -0.390415,0 -0.390415,-0.20741 0,-0.0488 0.061,-0.1342 0.207408,-0.23181 0.25621,-0.32942 0.109805,-0.1586 0.134206,-0.36601 0.0122,-0.18301 0.231809,-0.26841 z m -5.185206,-1.34206 q 0.366015,-0.43921 1.049242,-0.51242 0.207408,-0.0122 0.353814,0.15861 0.219609,0.28061 0.25621,0.32941 0.061,0.0732 0.219609,0.0976 0.134205,0.1342 0.317212,0.42701 0.158607,0.26841 0.280611,0.40262 0.305013,0.0854 0.50022,0.35381 0.0366,0.0854 0.305012,0.39042 0.0976,0.0732 0.305013,0.43922 0.244009,0.47582 0.25621,0.48802 0.0366,0.061 0.0854,0.061 0.207408,-0.061 0.317213,-0.061 0.280611,0 0.280611,0.26841 0,0.0366 -0.0244,0.1342 -0.061,0.26841 -0.0244,0.28061 0.280611,0.14641 0.390415,0.47582 0.0976,0.26841 0.390416,0.37822 0.231809,0.0854 0.414816,0.47582 0.0488,0.0976 0.0976,0.2074 0.0488,0.10981 0.0732,0.14641 l 0.0122,0.0366 q 0.25621,0.12201 0.414816,0.52462 0.158606,0.39042 0.439217,0.53682 0.366015,0.18301 0.366015,0.65883 0,0.57342 -0.439217,0.67103 -0.0244,0 -0.134206,0.0122 -0.109804,0.0244 -0.195208,0.0366 -0.122004,0.0366 -0.292811,0.25621 -0.170807,0.21961 -0.646626,0.25621 l 0.146406,0.1098 q -0.817432,-0.183 -0.817432,-0.37821 0,-0.0976 0.183007,-0.25621 0.170807,-0.15861 0.134205,-0.31722 -0.0366,-0.1586 -0.317212,-0.40261 -0.305013,-0.26841 -0.353814,-0.40262 -0.0122,-0.0488 -0.134206,-0.20741 -0.353814,-0.26841 -0.50022,-0.62222 -0.0244,-0.0732 -0.0854,-0.26841 -0.0488,-0.1098 -0.170807,-0.23181 -0.122005,-0.1098 -0.341613,-0.32941 -0.170807,-0.17081 -0.280611,-0.39042 -0.158607,-0.35381 -0.439218,-0.40261 -0.329413,0.1098 -0.463618,0.0976 -0.183008,-0.0244 -0.183008,-0.18301 0,-0.0854 0.158607,-0.45142 0.0366,-0.0732 0.0366,-0.1342 0,-0.0244 -0.183007,-0.24401 -0.109804,-0.10981 -0.219609,-0.32941 -0.0732,-0.15861 -0.317212,-0.48802 -0.0732,-0.0854 -0.414817,-0.34162 -0.0732,-0.0488 -0.317212,-0.21961 -0.24401,-0.1708 -0.427017,-0.30501 -0.0244,-0.061 -0.0732,-0.061 l -0.170807,0.0488 q -0.122005,0.0366 -0.183007,0.0366 -0.109805,0 -0.207409,-0.0976 -0.109804,-0.1098 -0.109804,-0.19521 0,-0.061 0.280611,-0.51242 0.0366,-0.0854 0.402616,-0.45142 z m 1.403056,7.23489 q -0.427017,-0.15861 -0.695428,-0.0976 -0.329413,-0.0122 -0.793031,0.20741 -0.170807,0.0732 -0.292812,0.0732 -0.292811,0 -0.292811,-0.42702 0,-0.25621 0.146405,-0.76863 0.146406,-0.51242 0.256211,-0.65883 l 0.280611,-0.34161 q 0.0854,-0.48802 0.805232,-0.90283 0.231809,-0.23181 0.414816,-0.40262 0.122005,-0.10981 0.268411,-0.10981 0.195208,0 0.280611,0.25621 l -0.341614,0.80524 q -0.0366,0.26841 -0.414816,0.98824 -0.061,0.1464 -0.061,0.1952 0,0.12201 0.219609,0.31722 0.0122,0.0366 0.524621,0.21961 0.439217,0.1464 0.549022,0.51242 -0.207408,0.2074 -0.475819,0.2074 -0.158606,0 -0.378215,-0.0732 z" />
      <path
         id="path4389"
         style="font-style:normal;font-variant:normal;font-weight:normal;font-stretch:normal;font-size:12.49329567px;font-family:Pergament;-inkscape-font-specification:'Pergament, Normal';font-variant-ligatures:normal;font-variant-caps:normal;font-variant-numeric:normal;font-feature-settings:normal;text-align:start;writing-mode:lr-tb;text-anchor:start;fill:url(#linearGradient4485);fill-opacity:1;stroke-width:0.31233239"
         d="m 65.727426,287.29404 q 0.183008,-0.14641 0.414817,-0.14641 0.122005,0 0.219609,0.061 0.109804,0.0732 0.158606,0.0732 0.0122,0 0.280611,-0.12201 0.24401,-0.1098 0.378215,-0.1098 0.292812,0 0.292812,0.30501 0,0.0366 -0.061,0.28061 -0.061,0.23181 -0.0488,0.24401 0.061,0.20741 -0.146406,0.41482 0.134206,0.18301 0.134206,0.41482 0,0.31721 -0.317213,0.31721 -0.280611,0 -0.414816,-0.17081 -0.061,-0.061 -0.061,-0.061 -0.122005,-0.0976 -0.25621,-0.35382 v -0.0244 q -0.0854,-0.0366 -0.292812,-0.24401 -0.061,-0.061 -0.280611,-0.061 -0.317212,-0.061 -0.402616,-0.1098 -0.0976,-0.061 -0.158606,-0.061 -0.0488,0 -0.183007,0.0366 -0.0854,0.0244 -0.207408,0.0244 -0.195208,0 -0.439218,-0.12201 -0.292811,-0.1464 -0.292811,-0.31721 0,-0.13421 0.292811,-0.28061 0.25621,-0.10981 0.366015,-0.10981 0.219608,0 0.50022,0.061 0.353814,0.0732 0.52462,0.061 z m 1.622665,5.79523 q 0.134205,-0.17081 0.280611,-0.17081 0.146406,0 0.24401,0.0854 0.122004,0.0976 0.122004,0.23181 0,0.0976 -0.0854,0.1586 -0.061,0.0732 -0.109804,0.12201 0.061,0.1586 0.061,0.1708 0,0.20741 -0.219609,0.42702 -0.219608,0.21961 -0.219608,0.42702 0,0.30501 -0.219609,0.30501 -0.158606,0 -0.414817,-0.21961 -0.0732,-0.0732 -0.146405,-0.0732 -0.0244,0 -0.146406,0.0244 -0.122005,0.0244 -0.158606,0.0244 -0.0854,0 -0.23181,-0.0732 -0.0854,-0.0488 -0.207408,-0.0732 -0.0488,-0.0122 -0.390415,-0.0122 -0.170807,0 -0.427017,0.0732 -0.25621,0.0732 -0.390416,0.0732 -0.25621,0 -0.561222,-0.0854 -0.439217,-0.10981 -0.439217,-0.26842 0,-0.0854 0.195207,-0.183 0.134206,-0.061 0.268411,-0.0854 0.207408,0 0.536821,-0.061 0.109805,-0.0854 0.573423,-0.17081 0.50022,-0.0976 0.573423,-0.1464 0.0732,-0.061 0.402616,-0.14641 0.0732,-0.0122 0.231809,-0.0366 0.170807,-0.0366 0.25621,-0.061 l 0.195208,-0.0976 q 0.170807,-0.0854 0.231809,-0.0854 0.0366,0 0.122005,0.0366 z m -6.527259,1.81787 q -0.402616,0 -0.402616,-0.57342 v -0.21961 q 0,-0.21961 0.195208,-0.41482 0.195207,-0.1952 0.195207,-0.36601 0,-0.14641 -0.0488,-0.34161 -0.0488,-0.19521 -0.0488,-0.32942 0,-0.183 0.134206,-0.57342 l 0.0244,-0.0732 q 0,-0.13421 -0.0488,-0.32942 -0.0488,-0.1952 -0.0488,-0.31721 0,-0.0854 0.0366,-0.25621 0.0366,-0.17081 0.0366,-0.23181 0,-0.061 -0.0854,-0.18301 -0.0854,-0.122 -0.0854,-0.1952 0,-0.10981 0.0976,-0.18301 0.0976,-0.0732 0.0976,-0.0854 0,-0.0366 -0.0976,-0.0976 -0.183007,-0.122 -0.183007,-0.32941 0,-0.0366 0.0854,-0.54902 0.061,-0.40262 0.134205,-0.51242 0.0244,-0.0488 0.0244,-0.0732 0,-0.0488 -0.0732,-0.122 -0.0854,-0.0854 -0.134205,-0.41482 -0.061,-0.35381 -0.0732,-0.35381 -0.122005,-0.061 -0.170807,-0.061 -0.0732,0 -0.183007,0.122 -0.109804,0.12201 -0.280611,0.12201 -0.122005,0 -0.25621,-0.0854 -0.183007,-0.0854 -0.183007,-0.21961 0,-0.23181 0.25621,-0.34161 0.0732,-0.0244 0.414816,-0.0244 0.0854,0 0.24401,-0.0366 0.109804,-0.0244 0.231809,-0.0244 0.963838,0 1.073643,0.1098 l 0.0976,0.0976 0.134205,-0.0976 q 0.146406,-0.1098 0.366014,-0.1098 0.0976,0 0.170807,0.0122 0.146406,0.0244 0.158606,0.0244 0.109805,0 0.183008,-0.0122 0.0732,-0.0122 0.183007,-0.0122 0.0854,0 0.146406,0.0122 0.0244,0 0.061,0.0122 0.0488,0.0122 0.061,0.0122 0.061,0 0.109804,-0.0122 0.0488,-0.0122 0.109804,-0.0122 0.122005,0 0.25621,0.1098 0.134206,0.10981 0.134206,0.25621 0,0.12201 -0.378215,0.32942 -0.378215,0.2074 -0.48802,0.2074 h -0.0244 -0.0244 -0.122004 q -0.0732,0.0244 -0.109805,0.12201 l -0.109804,0.39041 q 0,0.0122 0.0244,0.23181 0.0122,0.10981 0.0122,0.23181 0,0.21961 -0.0122,0.40262 -0.0244,0.36601 -0.0244,0.40261 0,0.18301 0.170807,0.35382 0.183007,0.18301 0.329413,0.19521 0.0854,0 0.231809,0.0732 0.183007,0.1098 0.719829,-0.0366 0.134205,-0.0366 0.402616,-0.13421 0.25621,-0.0732 0.427016,-0.0732 0.317213,0 0.317213,0.28061 0,0.13421 -0.183007,0.46362 -0.183007,0.32941 -0.317213,0.32941 -0.0732,0 -0.25621,-0.1098 -0.183007,-0.10981 -0.317213,-0.10981 -0.0244,0 -0.0854,0.0366 -0.061,0.0366 -0.109804,0.0366 -0.122005,0 -0.366015,-0.0732 -0.231809,-0.0732 -0.390415,-0.0732 -0.122005,0 -0.24401,0.0732 -0.122005,0.0732 -0.122005,0.12201 0,0.0854 -0.0122,0.1464 -0.0122,0.061 -0.0122,0.14641 0,0.0854 0.0854,0.21961 0.0854,0.1342 0.0854,0.25621 0,0.0976 -0.0976,0.35381 -0.0976,0.25621 -0.0976,0.37822 0,0.0732 0.0976,0.29281 0.0976,0.21961 0.0976,0.31721 0,0 -0.0122,0.0244 -0.0122,0.0366 -0.0122,0.061 -0.0122,0.0488 -0.0122,0.1098 0,0.0976 0.305012,0.25621 0.305012,0.15861 0.305012,0.32941 0,0.30501 -0.402616,0.37822 -0.146406,0.0244 -0.622225,0.0244 -0.0976,0 -0.170807,0.0122 -0.0732,0.0122 -0.183007,0.0122 -0.158606,0 -0.292812,-0.0244 -0.195207,-0.0366 -0.292811,-0.0366 -0.231809,0 -0.366015,0.1708 -0.146406,0.18301 -0.390415,0.18301 z" />
      <path
         id="path4391"
         style="font-style:normal;font-variant:normal;font-weight:normal;font-stretch:normal;font-size:12.49329567px;font-family:Pergament;-inkscape-font-specification:'Pergament, Normal';font-variant-ligatures:normal;font-variant-caps:normal;font-variant-numeric:normal;font-feature-settings:normal;text-align:start;writing-mode:lr-tb;text-anchor:start;fill:url(#linearGradient4485);fill-opacity:1;stroke-width:0.31233239"
         d="m 73.438135,287.69666 q 0.25621,-0.46362 0.451418,-0.46362 0.0488,0 0.195208,0.061 0.146405,0.061 0.195207,0.061 0.0366,0 0.122005,-0.0488 0.0854,-0.0488 0.183007,-0.0488 0.0122,0 0.23181,0.0488 0.146405,0.0366 0.244009,0.0122 0.158607,-0.1098 0.292812,-0.1098 0.207408,0 0.353814,0.1952 0.134205,0.18301 0.134205,0.41482 0,0.24401 -0.122005,0.64663 -0.134205,0.43921 -0.134205,0.63442 0,0.14641 0.0244,0.25621 0.0366,0.17081 0.0366,0.24401 0,0.39042 -0.414817,0.39042 -0.195208,0 -0.353814,-0.0976 -0.195208,-0.1342 -0.195208,-0.31721 0,-0.14641 0.109805,-0.34161 0.0244,-0.0366 0.0366,-0.0732 0.0244,-0.0366 0.0366,-0.061 0.0122,-0.0244 0.0244,-0.0366 0.0122,-0.0244 0.0122,-0.0366 l 0.0122,-0.0122 q 0,-0.0976 -0.109804,-0.21961 -0.0366,-0.0488 -0.0976,-0.12201 -0.061,-0.0854 -0.0732,-0.1098 -0.0976,-0.12201 -0.158606,-0.28061 -0.0732,-0.17081 -0.76863,-0.17081 -0.48802,0 -0.854034,0.73203 -0.0366,0.0732 -0.0366,0.18301 0,0.0732 0.0366,0.29281 0.0244,0.18301 0,0.28061 -0.0366,0.14641 -0.0366,0.30501 0,0.19521 0.0854,0.45142 0.0854,0.25621 0.0854,0.40262 0,0.0854 -0.0366,0.23181 -0.0244,0.0976 -0.0244,0.2196 0,0.10981 0.0122,0.20741 v 0.20741 q 0.109804,0.17081 0.109804,0.41482 0,0.20741 -0.0488,0.46362 -0.0488,0.25621 -0.0488,0.43921 0,0.10981 0.0488,0.24401 0.061,0.15861 0.061,0.24401 v 0.0976 q -0.0122,0.0366 -0.0122,0.0976 0,0.20741 0.268411,0.23181 0.0854,0.0122 0.25621,0.0366 0.183007,0.0122 0.268411,0.0122 0.268411,0.0488 0.268411,0.36602 0,0.41481 -0.585624,0.41481 -0.158606,0 -0.26841,-0.0122 -0.109805,-0.0122 -0.23181,-0.0122 -0.146405,0 -0.366014,0.10981 -0.219609,0.1098 -0.353814,0.1098 -0.378215,0 -0.561222,-0.53682 v -0.0122 l -0.0732,-0.0244 h -0.061 q -0.109804,0 -0.134205,0.1586 l 0.0122,0.23181 q 0,0.37822 -0.317212,0.37822 -0.268411,0 -0.463619,-0.18301 -0.195207,-0.18301 -0.195207,-0.47582 0,-0.061 0.0366,-0.1342 0.0244,-0.0488 0.0244,-0.10981 0.0122,-0.21961 0.207408,-0.41481 0.183008,-0.18301 0.183008,-0.32942 0,-0.0732 -0.061,-0.29281 -0.0488,-0.18301 -0.0488,-0.28061 0,-0.13421 0.0732,-0.41482 0.0854,-0.31721 0.0854,-0.41481 0,-0.15861 -0.0488,-0.35382 -0.0488,-0.1952 -0.0488,-0.32941 0,-0.0366 0.0244,-0.20741 0.0244,-0.17081 0.0244,-0.18301 0,-0.061 -0.061,-0.2196 -0.061,-0.15861 -0.061,-0.25621 0,-0.0976 0.0488,-0.23181 0.061,-0.15861 0.061,-0.21961 0,-0.0976 -0.0732,-0.28061 -0.061,-0.14641 -0.061,-0.28061 0,-0.10981 0.061,-0.37822 0.061,-0.26841 0.0488,-0.30501 -0.0244,-0.0732 -0.0854,-0.13421 -0.0732,-0.0732 -0.0732,-0.1708 0,-0.0122 0.0244,-0.13421 0.0244,-0.122 0.0244,-0.1464 0,-0.18301 -0.183007,-0.42702 -0.183008,-0.24401 -0.183008,-0.30501 0,-0.24401 1.146846,-0.24401 0.0488,0 0.366014,0.0244 0.317213,0.0244 0.378215,0.0244 0.0732,0 0.122005,-0.0122 0.0488,-0.0122 0.122005,-0.0122 0.366015,0 0.854034,0.45142 z m -4.599583,1.24444 q 0,0.0122 0.0244,0.15861 0.0244,0.14641 0.0244,0.15861 0,0.1586 -0.122004,0.29281 -0.134206,0.1464 -0.292812,0.1464 -0.341614,0 -0.341614,-0.45141 0,-0.13421 -0.109804,-0.70763 -0.0976,-0.51242 -0.0976,-0.70763 0,-0.59782 0.366015,-0.59782 0.0976,0 0.219608,0.061 0.122005,0.061 0.146406,0.061 0.0488,0 0.183007,-0.0366 0.170807,-0.0488 0.219609,-0.0488 1.220049,0 1.220049,0.30501 0,0.14641 -0.341614,0.29281 -0.402616,0.14641 -0.414816,0.18301 z" />
    </g>
  </g>
</svg>
