<svg xmlns="http://www.w3.org/2000/svg" viewBox="0 0 527.67395 274.67184">
  <g>
    <g stroke="#000" transform="translate(-4.30564 -129.34613)">
      <path fill="#ff173d" d="M148.15155 360.40049s-6.17759-46.513-28.03583-51.64408C90 301.68695 70 316.73935 70 316.73935l-10-28.40604s24.8471-46.4685 84.84625-46.78896c45.15375-.24116 67.42007 23.36992 67.42007 23.36992s4.87827-3.64145 5.21164-22.0109C218.05939 210.86602 185 178.33331 180 178.33331c-21.90454-11.22774-1.27691-20.83071 10-23.11805 5.52528-1.05055 73.18121-6.88195 109.64231 32.71384 28.8234 31.30144 34.23947 75.90361 34.23947 75.90361s17.76096-23.66324 67.76096-23.66324S475 278.33331 475 278.33331l-5 20s-32.76245-7.77298-61.67505 11.30742C380 328.33331 375 363.33331 375 363.33331z"/>
      <path d="M207.33008 154.31055c-9.30701-.0652-15.77609.60883-17.33008.90429-11.27691 2.28734-31.90454 11.8914-10 23.11914 5 0 38.05995 32.53297 37.47852 64.57032-.33337 18.36945-5.2129 22.00976-5.2129 22.00976s-22.26617-23.6103-67.41992-23.36914C84.84656 241.86538 60 288.33398 60 288.33398l10 28.40625s19.99951-15.05383 50.11523-7.98437c21.85824 5.13108 28.03711 51.64453 28.03711 51.64453L375 363.33398s4.99927-35.00078 33.32422-53.69336C437.23682 290.56023 470 298.33398 470 298.33398l5-20s-23.35742-38.16406-73.35742-38.16406-67.76172 23.66211-67.76172 23.66211-5.41488-44.6009-34.23828-75.90234c-26.20642-28.45948-68.52793-33.45257-92.3125-33.61914zm2.58398 7.26367c1.83766.002 3.80981.0429 5.92578.13086 39.15994 1.62729 63.02185 17.40985 83.63868 46.1875 19.01709 26.54469 17.7539 66.84765 17.7539 66.84765l19.33789.77344S351.04625 248.06073 405 248.33398c34.52089.50097 60 26.85547 60 26.85547l-5 18.14453s-35.06321-8.8828-63.28125 11.11719C368.61463 324.37043 365 353.33398 365 353.33398H155s-2.8383-64.01993-45.24219-64.60937C81.63331 288.33365 75 303.33398 75 303.33398l-6.80664-15s26.73607-44.30151 83.62109-38.875c40.61377 3.87432 56.84571 27.76368 56.84571 27.76368l14.03906-3.74414s4.596-13.35213 3.87109-37.59375C225.39215 196.48625 185 170.58789 185 170.58789s-2.65082-9.04263 24.91406-9.01367z"/>
      <path d="M135 356.00495l22.04656 47.32836c34.88437-18.14978 73.8345-30.87581 113.53358-29.91869 34.74687 1.19225 69.25744 10.97592 99.41986 28.26449l22.31199-41.5807c-42.47431-30.45817-96.40406-42.81058-148.14809-38.63511-38.212 2.96482-77.18302 12.68886-109.1639 34.54165z"/>
      <path fill="#ff0" d="M157.38148 385.55623c35.79308-18.77543 77.12818-25.99511 117.29874-23.64698 31.30447 2.34463 62.19036 10.80853 90.31978 24.73482l12.17881-26.1346c-29.1838-18.93909-64.10522-26.99453-98.36466-30.23742-45.96725-4.1126-93.80647 4.54717-133.81415 28.06126l12.38148 27.22292z"/>
      <circle cx="173.57738" cy="174.78932" r="40.78235" fill="#ff0" stroke-width="9.32168"/>
      <circle cx="49.74882" cy="302.40982" r="40.78235" fill="#ff0" stroke-width="9.32168"/>
      <circle cx="486.53638" cy="297.04941" r="40.78235" fill="#ff0" stroke-width="9.32168"/>
    </g>
  </g>
</svg>
