<?xml version="1.0" encoding="UTF-8" standalone="no"?>
<!-- Created with Inkscape (http://www.inkscape.org/) -->

<svg
   xmlns:dc="http://purl.org/dc/elements/1.1/"
   xmlns:cc="http://creativecommons.org/ns#"
   xmlns:rdf="http://www.w3.org/1999/02/22-rdf-syntax-ns#"
   xmlns:svg="http://www.w3.org/2000/svg"
   xmlns="http://www.w3.org/2000/svg"
   xmlns:sodipodi="http://sodipodi.sourceforge.net/DTD/sodipodi-0.dtd"
   xmlns:inkscape="http://www.inkscape.org/namespaces/inkscape"
   version="1.1"
   id="svg64"
   width="527.67395"
   height="274.67184"
   viewBox="0 0 527.67395 274.67184"
   sodipodi:docname="luva-inkscape.svg"
   enable-background="new"
   inkscape:version="0.92+devel unknown">
  <metadata
     id="metadata70">
    <rdf:RDF>
      <cc:Work
         rdf:about="">
        <dc:format>image/svg+xml</dc:format>
        <dc:type
           rdf:resource="http://purl.org/dc/dcmitype/StillImage" />
        <dc:title></dc:title>
      </cc:Work>
    </rdf:RDF>
  </metadata>
  <defs
     id="defs68" />
  <sodipodi:namedview
     pagecolor="#ffffff"
     bordercolor="#666666"
     inkscape:document-rotation="0"
     borderopacity="1"
     objecttolerance="10"
     gridtolerance="10"
     guidetolerance="10"
     inkscape:pageopacity="0"
     inkscape:pageshadow="2"
     inkscape:window-width="2558"
     inkscape:window-height="1407"
     id="namedview66"
     showgrid="false"
     inkscape:zoom="1.5870129"
     inkscape:cx="406.99743"
     inkscape:cy="58.132186"
     inkscape:window-x="0"
     inkscape:window-y="31"
     inkscape:window-maximized="0"
     inkscape:current-layer="layer1"
     showguides="false">
    <inkscape:grid
       type="xygrid"
       id="grid76"
       originx="-4.3056364"
       originy="-129.31533" />
  </sodipodi:namedview>
  <g
     inkscape:groupmode="layer"
     id="layer3"
     inkscape:label="Outline 1"
     style="display:inline"
     transform="translate(-4.3056364,-129.34613)">
    <g
       inkscape:groupmode="layer"
       id="layer6"
       inkscape:label="Outline 3"
       style="display:inline" />
    <g
       inkscape:groupmode="layer"
       id="layer5"
       inkscape:label="Outline 2"
       style="display:inline" />
  </g>
  <g
     inkscape:groupmode="layer"
     id="layer2"
     inkscape:label="Head band"
     style="display:inline"
     transform="translate(-4.3056364,-129.34613)" />
  <g
     inkscape:groupmode="layer"
     id="layer1"
     inkscape:label="Balls"
     style="display:inline"
     transform="translate(-4.3056364,-129.34613)">
    <g
       id="g4357">
      <path
         style="display:inline;fill:#ff173d;fill-opacity:1;stroke:#000000;stroke-width:1px;stroke-linecap:butt;stroke-linejoin:miter;stroke-opacity:1"
         d="m 148.15155,360.40049 c 0,0 -6.17759,-46.513 -28.03583,-51.64408 C 90,301.68695 70,316.73935 70,316.73935 L 60,288.33331 c 0,0 24.847106,-46.4685 84.84625,-46.78896 45.15375,-0.24116 67.42007,23.36992 67.42007,23.36992 0,0 4.87827,-3.64145 5.21164,-22.0109 C 218.05939,210.86602 185,178.33331 180,178.33331 c -21.90454,-11.22774 -1.27691,-20.83071 10,-23.11805 5.52528,-1.05055 73.18121,-6.88195 109.64231,32.71384 28.8234,31.30144 34.23947,75.90361 34.23947,75.90361 0,0 17.76096,-23.66324 67.76096,-23.66324 50,0 73.35726,38.16384 73.35726,38.16384 l -5,20 c 0,0 -32.76245,-7.77298 -61.67505,11.30742 C 380,328.33331 375,363.33331 375,363.33331 Z"
         id="path5283"
         inkscape:connector-curvature="0"
         sodipodi:nodetypes="csccscsccscsccscc" />
      <path
         inkscape:connector-curvature="0"
         id="path925"
         d="m 207.33008,154.31055 c -9.30701,-0.0652 -15.77609,0.60883 -17.33008,0.90429 -11.27691,2.28734 -31.90454,11.8914 -10,23.11914 5,0 38.05995,32.53297 37.47852,64.57032 -0.33337,18.36945 -5.2129,22.00976 -5.2129,22.00976 0,0 -22.26617,-23.6103 -67.41992,-23.36914 C 84.846559,241.86538 60,288.33398 60,288.33398 l 10,28.40625 c 0,0 19.999514,-15.05383 50.11523,-7.98437 21.85824,5.13108 28.03711,51.64453 28.03711,51.64453 L 375,363.33398 c 0,0 4.99927,-35.00078 33.32422,-53.69336 C 437.23682,290.56023 470,298.33398 470,298.33398 l 5,-20 c 0,0 -23.35742,-38.16406 -73.35742,-38.16406 -50,0 -67.76172,23.66211 -67.76172,23.66211 0,0 -5.41488,-44.6009 -34.23828,-75.90234 -26.20642,-28.45948 -68.52793,-33.45257 -92.3125,-33.61914 z m 2.58398,7.26367 c 1.83766,0.002 3.80981,0.0429 5.92578,0.13086 39.15994,1.62729 63.02185,17.40985 83.63868,46.1875 19.01709,26.54469 17.7539,66.84765 17.7539,66.84765 l 19.33789,0.77344 c 0,0 14.47594,-27.45294 68.42969,-27.17969 34.52089,0.50097 60,26.85547 60,26.85547 l -5,18.14453 c 0,0 -35.06321,-8.8828 -63.28125,11.11719 C 368.61463,324.37043 365,353.33398 365,353.33398 H 155 c 0,0 -2.8383,-64.01993 -45.24219,-64.60937 C 81.633305,288.33365 75,303.33398 75,303.33398 l -6.806641,-15 c 0,0 26.736066,-44.30151 83.621091,-38.875 40.61377,3.87432 56.84571,27.76368 56.84571,27.76368 l 14.03906,-3.74414 c 0,0 4.596,-13.35213 3.87109,-37.59375 C 225.39215,196.48625 185,170.58789 185,170.58789 c 0,0 -2.65082,-9.04263 24.91406,-9.01367 z"
         style="display:inline;fill:#000000;fill-opacity:1;stroke:#000000;stroke-width:1px;stroke-linecap:butt;stroke-linejoin:miter;stroke-opacity:1" />
      <path
         inkscape:connector-curvature="0"
         id="path916"
         d="m 135,356.00495 c 7.34885,15.77612 14.69771,31.55224 22.04656,47.32836 34.88437,-18.14978 73.8345,-30.87581 113.53358,-29.91869 34.74687,1.19225 69.25744,10.97592 99.41986,28.26449 7.43733,-13.86023 14.87466,-27.72047 22.31199,-41.5807 C 349.83768,329.64024 295.90793,317.28783 244.1639,321.4633 205.9519,324.42812 166.98088,334.15216 135,356.00495 Z"
         style="display:inline;fill:#000000;fill-opacity:1;stroke:#000000;stroke-width:1px;stroke-linecap:butt;stroke-linejoin:miter;stroke-opacity:1" />
      <path
         inkscape:connector-curvature="0"
         id="path919"
         d="m 157.38148,385.55623 c 35.79308,-18.77543 77.12818,-25.99511 117.29874,-23.64698 31.30447,2.34463 62.19036,10.80853 90.31978,24.73482 4.0596,-8.71153 8.11921,-17.42307 12.17881,-26.1346 -29.1838,-18.93909 -64.10522,-26.99453 -98.36466,-30.23742 -45.96725,-4.1126 -93.80647,4.54717 -133.81415,28.06126 4.12716,9.07431 8.25432,18.14861 12.38148,27.22292 z"
         style="display:inline;fill:#ffff00;fill-opacity:1;stroke:#000000;stroke-width:1px;stroke-linecap:butt;stroke-linejoin:miter;stroke-opacity:1" />
      <circle
         style="fill:#ffff00;fill-opacity:1;stroke:#000000;stroke-width:9.32168007;stroke-miterlimit:4;stroke-dasharray:none"
         id="circle911"
         cx="173.57738"
         cy="174.78932"
         r="40.782349" />
      <circle
         r="40.782349"
         cy="302.40982"
         cx="49.748825"
         id="circle913"
         style="fill:#ffff00;fill-opacity:1;stroke:#000000;stroke-width:9.32168007;stroke-miterlimit:4;stroke-dasharray:none" />
      <circle
         r="40.782349"
         cy="297.04941"
         cx="486.53638"
         id="circle4347"
         style="fill:#ffff00;fill-opacity:1;stroke:#000000;stroke-width:9.32168007;stroke-miterlimit:4;stroke-dasharray:none" />
    </g>
  </g>
</svg>
